<?xml version="1.0" encoding="iso-8859-1"?>
<!-- Generator: Adobe Illustrator 19.0.0, SVG Export Plug-In . SVG Version: 6.00 Build 0)  -->
<svg version="1.1" id="Capa_1" xmlns="http://www.w3.org/2000/svg" xmlns:xlink="http://www.w3.org/1999/xlink" x="0px" y="0px"
	 viewBox="0 0 512.003 512.003" style="enable-background:new 0 0 512.003 512.003;" xml:space="preserve">
<g>
	<g>
		<g>
			<path d="M511.004,237.643c-0.425-3.502-2.962-6.382-6.383-7.245l-47.292-11.947c-1.959-10.398-4.721-20.629-8.26-30.601
				l35.081-34.022c2.553-2.474,3.304-6.272,1.886-9.532c-2.479-5.586-5.271-11.027-8.363-16.299
				c-3.02-5.291-6.318-10.419-9.882-15.36c-2.105-2.898-5.797-4.173-9.242-3.191l-47.07,13.431
				c-8.064-9.371-16.942-18.009-26.53-25.813c-2.231-1.815-5.226-2.384-7.967-1.514c-2.741,0.87-4.859,3.062-5.635,5.832
				l-15.531,55.552c-0.785,2.81-0.08,5.825,1.869,7.996c49.027,54.714,45.97,138.413-6.918,189.404
				c-52.888,50.991-136.643,50.991-189.531,0c-52.888-50.991-55.945-134.691-6.918-189.404c1.949-2.171,2.653-5.186,1.869-7.996
				l-15.531-55.552c-0.776-2.769-2.894-4.962-5.635-5.832c-2.741-0.87-5.736-0.301-7.967,1.514
				c-9.586,7.807-18.464,16.445-26.53,25.813l-47.07-13.414c-3.441-0.979-7.127,0.292-9.233,3.183
				c-3.565,4.937-6.864,10.062-9.882,15.351c-3.096,5.271-5.891,10.712-8.371,16.299c-1.418,3.26-0.667,7.058,1.886,9.532
				l35.081,34.022c-3.54,9.971-6.302,20.202-8.26,30.601L7.383,230.398c-3.429,0.867-5.967,3.758-6.383,7.27
				c-1.334,12.195-1.334,24.499,0,36.693c0.429,3.499,2.965,6.374,6.383,7.236l47.292,11.947c1.959,10.398,4.72,20.629,8.26,30.601
				l-35.081,34.022c-2.553,2.474-3.304,6.272-1.886,9.532c2.479,5.586,5.271,11.027,8.363,16.299
				c3.022,5.292,6.323,10.419,9.89,15.36c2.106,2.891,5.792,4.162,9.233,3.183l47.07-13.423
				c6.896,7.989,14.369,15.461,22.357,22.357l-13.414,47.061c-0.983,3.443,0.288,7.134,3.183,9.242
				c4.937,3.568,10.062,6.87,15.351,9.89c5.269,3.091,10.707,5.883,16.29,8.363c3.264,1.407,7.057,0.657,9.54-1.886l34.005-35.081
				c9.975,3.538,20.208,6.299,30.609,8.26l11.955,47.292c0.867,3.429,3.758,5.967,7.27,6.383c12.195,1.333,24.499,1.333,36.693,0
				c3.499-0.429,6.374-2.965,7.236-6.383l11.947-47.292c10.401-1.959,20.635-4.72,30.609-8.26l34.005,35.081
				c2.476,2.556,6.278,3.308,9.54,1.886c5.585-2.481,11.026-5.273,16.299-8.363c5.292-3.022,10.419-6.323,15.36-9.89
				c2.895-2.108,4.166-5.798,3.183-9.242l-13.423-47.061c7.989-6.896,15.461-14.369,22.357-22.357l47.07,13.414
				c3.445,0.966,7.127-0.306,9.242-3.191c3.561-4.935,6.857-10.057,9.873-15.343c3.096-5.271,5.891-10.712,8.371-16.299
				c1.418-3.26,0.667-7.057-1.886-9.532l-35.081-34.022c3.54-9.971,6.301-20.202,8.26-30.601l47.292-11.947
				c3.426-0.866,5.964-3.753,6.383-7.262C512.336,262.141,512.336,249.837,511.004,237.643z M494.585,266.519l-46.797,11.836
				c-3.303,0.836-5.792,3.557-6.332,6.921c-2.07,13.002-5.503,25.75-10.24,38.033c-1.242,3.198-0.449,6.828,2.014,9.216
				l34.722,33.656c-1.425,2.867-3.081,5.905-5.035,9.293c-1.86,3.234-3.686,6.204-5.521,8.969l-46.566-13.244
				c-3.279-0.933-6.798,0.174-8.951,2.816c-8.332,10.214-17.672,19.563-27.878,27.904c-2.642,2.154-3.75,5.673-2.816,8.951
				l13.261,46.515c-2.756,1.826-5.726,3.652-8.969,5.53c-3.413,1.954-6.426,3.592-9.293,5.018l-33.656-34.714
				c-2.39-2.466-6.025-3.26-9.224-2.014c-12.279,4.742-25.025,8.175-38.025,10.24c-3.366,0.541-6.088,3.034-6.921,6.34
				l-11.827,46.805c-7.009,0.469-14.042,0.469-21.052,0l-11.836-46.805c-0.833-3.306-3.554-5.799-6.921-6.34
				c-13-2.066-25.745-5.499-38.025-10.24c-3.2-1.246-6.835-0.452-9.225,2.014l-33.655,34.714c-2.859-1.425-5.905-3.063-9.284-5.018
				c-3.251-1.877-6.221-3.703-8.977-5.53l13.244-46.549c0.933-3.278-0.174-6.798-2.816-8.951
				c-10.206-8.336-19.546-17.678-27.878-27.887c-2.154-2.642-5.673-3.75-8.951-2.816l-46.541,13.261
				c-1.835-2.756-3.661-5.734-5.53-8.977c-1.946-3.413-3.601-6.426-5.026-9.284l34.722-33.656c2.463-2.388,3.256-6.018,2.014-9.216
				c-4.74-12.283-8.172-25.031-10.24-38.033c-0.541-3.366-3.034-6.088-6.34-6.921L17.41,266.519
				c-0.23-3.285-0.341-6.784-0.341-10.522c0-3.738,0.111-7.236,0.341-10.522l46.805-11.836c3.306-0.833,5.799-3.554,6.34-6.921
				c2.068-13.002,5.5-25.75,10.24-38.033c1.242-3.198,0.449-6.828-2.014-9.216l-34.688-33.655c1.425-2.867,3.081-5.905,5.035-9.293
				c1.86-3.234,3.686-6.212,5.521-8.969l46.524,13.244c3.278,0.92,6.79-0.185,8.951-2.816c5.483-6.718,11.406-13.064,17.732-18.995
				l10.658,38.093c-52.456,62.287-47.185,154.687,12.013,210.605s151.749,55.918,210.947,0
				c59.199-55.918,64.469-148.318,12.013-210.605l10.658-38.101c6.343,5.936,12.282,12.291,17.775,19.021
				c2.163,2.629,5.673,3.733,8.951,2.816l46.515-13.261c1.835,2.765,3.661,5.734,5.53,8.977c1.946,3.413,3.601,6.426,5.026,9.284
				l-34.722,33.655c-2.463,2.388-3.256,6.018-2.014,9.216c4.737,12.284,8.17,25.031,10.24,38.033
				c0.54,3.364,3.029,6.085,6.332,6.921l46.805,11.836c0.23,3.277,0.341,6.767,0.341,10.522
				C494.927,259.753,494.816,263.243,494.585,266.519z"/>
			<path d="M221.869,105.717v144.213c-21.418,14.914-30.674,42.006-22.859,66.908c7.816,24.901,30.893,41.846,56.992,41.846
				s49.177-16.944,56.992-41.846c7.816-24.901-1.44-51.994-22.859-66.908V105.717c16.015-11.167,25.571-29.449,25.6-48.973
				c0.034-25.328-15.961-47.904-39.868-56.269c-2.608-0.905-5.493-0.493-7.743,1.106c-2.25,1.599-3.587,4.189-3.589,6.949v42.803
				c0,4.713-3.82,8.533-8.533,8.533s-8.533-3.82-8.533-8.533V8.531c-0.002-2.761-1.339-5.35-3.589-6.949
				c-2.25-1.599-5.135-2.012-7.743-1.106c-21.131,7.424-36.322,26.061-39.331,48.256S203.477,92.935,221.869,105.717z
				 M230.402,22.603v28.732c0,14.138,11.461,25.6,25.6,25.6s25.6-11.461,25.6-25.6V22.603c11.447,8.602,17.815,22.373,16.957,36.667
				s-8.829,27.203-21.224,34.373c-2.64,1.524-4.267,4.341-4.267,7.39v153.6c-0.003,3.052,1.624,5.873,4.267,7.398
				c16.724,9.656,24.878,29.34,19.879,47.993c-4.998,18.653-21.902,31.624-41.213,31.624s-36.215-12.971-41.213-31.624
				c-4.998-18.653,3.156-38.338,19.88-47.993c2.64-1.524,4.267-4.341,4.267-7.39v-153.6c0-3.049-1.627-5.866-4.267-7.39
				c-12.398-7.17-20.372-20.081-21.23-34.377S218.951,31.205,230.402,22.603z"/>
			<path d="M230.402,298.929c0,14.138,11.461,25.6,25.6,25.6s25.6-11.461,25.6-25.6s-11.462-25.6-25.6-25.6
				S230.402,284.791,230.402,298.929z M256.002,290.396c4.713,0,8.533,3.82,8.533,8.533s-3.82,8.533-8.533,8.533
				s-8.533-3.82-8.533-8.533S251.289,290.396,256.002,290.396z"/>
		</g>
	</g>
</g>
<g>
</g>
<g>
</g>
<g>
</g>
<g>
</g>
<g>
</g>
<g>
</g>
<g>
</g>
<g>
</g>
<g>
</g>
<g>
</g>
<g>
</g>
<g>
</g>
<g>
</g>
<g>
</g>
<g>
</g>
</svg>
